HIERARCHY
ROOT root
{
	OFFSET	0	13.1	24.9
	CHANNELS 6  Xposition Yposition Zposition Xrotation Yrotation Zrotation
	JOINT spine_1
	{
		OFFSET	0	9.99999	0
		CHANNELS 3  Xrotation Yrotation Zrotation
		JOINT spine_2
		{
			OFFSET	0	112	-10
			CHANNELS 3  Xrotation Yrotation Zrotation
			JOINT spine_3
			{
				OFFSET	0	206.5	19.3
				CHANNELS 3  Xrotation Yrotation Zrotation
				JOINT spine_4
				{
					OFFSET	0	110.4	14.6
					CHANNELS 3  Xrotation Yrotation Zrotation
					JOINT neck_1
					{
						OFFSET	0	71.8	-50.3
						CHANNELS 3  Xrotation Yrotation Zrotation
						JOINT neck_2
						{
							OFFSET	0	86.2	-25.8
							CHANNELS 3  Xrotation Yrotation Zrotation
							JOINT head_ee
							{
								OFFSET	0	179.8	-8.7
								CHANNELS 3  Xrotation Yrotation Zrotation
								End Site
								{
									OFFSET	1	0	0
								}
							}
						}
					}
					JOINT left_clavicle
					{
						OFFSET	-43.2	22.4	-70.8
						CHANNELS 3  Xrotation Yrotation Zrotation
						JOINT left_shoulder
						{
							OFFSET	-93.9	-5.79999	48.7
							CHANNELS 3  Xrotation Yrotation Zrotation
							JOINT left_elbow
							{
								OFFSET	-291.4	-30.8	15.2
								CHANNELS 3  Xrotation Yrotation Zrotation
								JOINT left_lowarm_twist
								{
									OFFSET	-110.7	-3.89999	13.6
									CHANNELS 3  Xrotation Yrotation Zrotation
									JOINT left_hand
									{
										OFFSET	-110.7	-3.89999	13.6
										CHANNELS 3  Xrotation Yrotation Zrotation
										JOINT left_ee
										{
											OFFSET	-80.8	-5.10001	12.1
											CHANNELS 3  Xrotation Yrotation Zrotation
											End Site
											{
												OFFSET	1	0	0
											}
										}
									}
								}
							}
						}
					}
					JOINT right_clavicle
					{
						OFFSET	43.2	22.4	-70.8
						CHANNELS 3  Xrotation Yrotation Zrotation
						JOINT right_shoulder
						{
							OFFSET	93.9	-5.79999	48.7
							CHANNELS 3  Xrotation Yrotation Zrotation
							JOINT right_elbow
							{
								OFFSET	291.4	-30.8	15.2
								CHANNELS 3  Xrotation Yrotation Zrotation
								JOINT right_lowarm_twist
								{
									OFFSET	110.7	-3.89999	13.6
									CHANNELS 3  Xrotation Yrotation Zrotation
									JOINT right_hand
									{
										OFFSET	110.7	-3.89999	13.6
										CHANNELS 3  Xrotation Yrotation Zrotation
										JOINT right_ee
										{
											OFFSET	80.8	-5.10001	12.1
											CHANNELS 3  Xrotation Yrotation Zrotation
											End Site
											{
												OFFSET	1	0	0
											}
										}
									}
								}
							}
						}
					}
				}
			}
		}
	}
	JOINT left_hip
	{
		OFFSET	-82.8	-127.5	0.300001
		CHANNELS 3  Xrotation Yrotation Zrotation
		JOINT left_knee
		{
			OFFSET	-28.2	-396.7	2.2
			CHANNELS 3  Xrotation Yrotation Zrotation
			JOINT left_ankle
			{
				OFFSET	-11.7	-411.3	35.4
				CHANNELS 3  Xrotation Yrotation Zrotation
				JOINT left_toes
				{
					OFFSET	0	-60	-88.6
					CHANNELS 3  Xrotation Yrotation Zrotation
					JOINT left_foot_ee
					{
						OFFSET	-22.5	-16.5	-42.2
						CHANNELS 3  Xrotation Yrotation Zrotation
						End Site
						{
							OFFSET	1	0	0
						}
					}
				}
			}
		}
	}
	JOINT right_hip
	{
		OFFSET	82.8	-127.5	0.300001
		CHANNELS 3  Xrotation Yrotation Zrotation
		JOINT right_knee
		{
			OFFSET	28.2	-396.7	2.2
			CHANNELS 3  Xrotation Yrotation Zrotation
			JOINT right_ankle
			{
				OFFSET	11.7	-411.3	35.4
				CHANNELS 3  Xrotation Yrotation Zrotation
				JOINT right_toes
				{
					OFFSET	0	-60	-88.6
					CHANNELS 3  Xrotation Yrotation Zrotation
					JOINT right_foot_ee
					{
						OFFSET	22.5	-16.5	-42.2
						CHANNELS 3  Xrotation Yrotation Zrotation
						End Site
						{
							OFFSET	1	0	0
						}
					}
				}
			}
		}
	}
}
MOTION
Frames: 7
Frame Time: 0.02
628.14613745 710.608 -1320.87768755 -179.15245742 -43.8681299744 -172.527456783 -2.72538 -0.506406 -2.19437 -2.72278 -0.365782 -2.22213 -2.70492 0.215471 -2.24169 -2.71191 -0.141174 -2.24759 0.743018 8.11241 -0.553557 0.926384 14.8449 0.16602 -0.0 0.0 -0.0 10.7394 6.72774 20.6319 -21.5786 -44.8843 40.8568 0.896802 -23.9529 0.190239 -37.4262 -2.68169 3.86975 -0.673283 24.5205 5.89662 -0.0 0.0 -0.0 5.64736 -6.39726 -10.9993 -8.73911 28.1046 -54.3406 0.983486 25.9744 -0.22683 47.1525 0.77258 5.80614 0.913178 -10.8261 -10.3543 0.0 0.0 0.0 9.02439 -24.4529 -1.15123 -23.9639 0.22756 3.64369 31.7492 27.9952 -4.39128 31.623 -0.0 -0.0 -0.0 0.0 -0.0 7.48473 -33.574 1.15071 -1.62449 -0.0634711 -0.241214 6.75517 -22.4498 1.00174 -0.591894 0.0 0.0 0.0 0.0 0.0 
641.483867315 710.114 -1319.97375861 -179.17891903 -42.5512639511 -172.541715662 -2.59349 -0.423382 -2.3317 -2.5905 -0.274195 -2.35389 -2.57542 0.332538 -2.34637 -2.5831 -0.0420923 -2.36943 1.19968 7.0645 -2.15632 1.40878 14.2758 -1.72895 -0.0 0.0 -0.0 10.7068 7.90646 20.4393 -20.2464 -44.5292 40.7286 1.28415 -32.4601 0.373824 -38.1134 -2.7528 3.9219 -1.08952 21.1444 2.07544 -0.0 0.0 -0.0 5.60952 -5.26823 -10.9258 -10.7068 26.2262 -53.359 0.95602 25.3411 -0.214937 48.2487 0.84631 5.92554 0.845932 -7.82542 -8.7744 0.0 0.0 0.0 9.05224 -21.578 -1.21748 -23.8911 0.229187 3.63263 34.9317 27.4816 -4.73072 31.4594 -0.0 -0.0 -0.0 0.0 -0.0 11.6133 -33.8601 2.29319 -1.5196 -0.0595801 -0.225586 7.73163 -22.4242 1.14317 -0.212941 0.0 0.0 0.0 0.0 0.0 
645.195592327 710.114 -1311.57902242 -179.202865884 -40.6413368806 -172.577781822 -2.59349 -0.423382 -2.3317 -2.5905 -0.274195 -2.35389 -2.57542 0.332538 -2.34637 -2.5831 -0.0420923 -2.36943 1.19968 7.0645 -2.15632 1.40878 14.2758 -1.72895 -0.0 0.0 -0.0 10.7068 7.90646 20.4393 -20.2464 -44.5292 40.7286 1.28415 -32.4601 0.373824 -38.1134 -2.7528 3.9219 -1.08952 21.1444 2.07544 -0.0 0.0 -0.0 5.60952 -5.26823 -10.9258 -10.7068 26.2262 -53.359 0.95602 25.3411 -0.214937 48.2487 0.84631 5.92554 0.845932 -7.82542 -8.7744 0.0 0.0 0.0 9.05224 -21.578 -1.21748 -23.8911 0.229187 3.63263 34.9317 27.4816 -4.73072 31.4594 -0.0 -0.0 -0.0 0.0 -0.0 11.6133 -33.8601 2.29319 -1.5196 -0.0595801 -0.225586 7.73163 -22.4242 1.14317 -0.212941 0.0 0.0 0.0 0.0 0.0 
651.497056909 711.991 -1307.15147542 -178.929738141 -40.7393434776 -171.495245287 -2.56821 -0.605435 -2.52028 -2.56479 -0.44389 -2.55367 -2.54028 0.217428 -2.58281 -2.54954 -0.193067 -2.58474 1.72652 5.64867 -3.46156 1.94349 12.8387 -3.3416 -0.0 0.0 -0.0 10.2258 8.60066 19.4367 -19.3269 -45.1601 40.6145 1.50328 -36.6719 0.498235 -40.0093 -2.95215 4.06133 -1.89692 21.4426 -2.51839 -0.0 0.0 -0.0 5.64932 -3.14825 -10.983 -12.0834 24.253 -53.3526 0.990938 26.1451 -0.230103 50.3543 0.99429 6.15086 0.702104 -5.93111 -7.0872 0.0 0.0 0.0 6.99694 -22.3799 -2.39669 -21.6771 0.271941 3.29559 34.8136 28.1165 -4.7391 31.0362 -0.0 -0.0 -0.0 0.0 -0.0 13.1414 -34.1781 1.8145 -1.82143 -0.0706999 -0.270574 7.95766 -18.4818 1.15811 -2.14721 0.0 0.0 0.0 0.0 0.0 
669.446893415 709.556 -1302.42457157 -179.719740657 -46.3012248911 -170.880462217 -2.94582 -0.689719 -2.64521 -2.94208 -0.520063 -2.68369 -2.912 0.194319 -2.72667 -2.92229 -0.238583 -2.72316 4.34161 2.96402 -3.63866 4.48597 8.26328 -3.96733 -0.0 0.0 -0.0 10.2128 9.8675 19.272 -15.483 -46.3166 41.165 1.8334 -42.242 0.708272 -42.3899 -3.20884 4.22697 -2.80196 17.2094 -10.1202 -0.0 0.0 -0.0 5.57411 -3.86915 -10.8483 -14.118 20.0181 -54.2587 1.00146 26.3851 -0.234758 53.9099 1.26272 6.51865 0.947388 -0.507606 -6.54695 0.0 0.0 0.0 3.54168 -20.5469 -3.57278 -20.3471 0.29135 3.09245 37.3342 27.1757 -4.97507 30.5867 -0.0 -0.0 -0.0 0.0 -0.0 23.6888 -35.5279 0.608097 -1.96076 -0.0757527 -0.29136 6.96446 -15.3061 1.00788 -2.44934 0.0 0.0 0.0 0.0 0.0 
669.137479382 709.556 -1303.29780342 -179.718814102 -46.4813659021 -170.879182565 -2.94582 -0.689719 -2.64521 -2.94208 -0.520063 -2.68369 -2.912 0.194319 -2.72667 -2.92229 -0.238583 -2.72316 4.34161 2.96402 -3.63866 4.48597 8.26328 -3.96733 -0.0 0.0 -0.0 10.2128 9.8675 19.272 -15.483 -46.3166 41.165 1.8334 -42.242 0.708272 -42.3899 -3.20884 4.22697 -2.80196 17.2094 -10.1202 -0.0 0.0 -0.0 5.57411 -3.86915 -10.8483 -14.118 20.0181 -54.2587 1.00146 26.3851 -0.234758 53.9099 1.26272 6.51865 0.947388 -0.507606 -6.54695 0.0 0.0 0.0 3.54168 -20.5469 -3.57278 -20.3471 0.29135 3.09245 37.3342 27.1757 -4.97507 30.5867 -0.0 -0.0 -0.0 0.0 -0.0 23.6888 -35.5279 0.608097 -1.96076 -0.0757527 -0.29136 6.96446 -15.3061 1.00788 -2.44934 0.0 0.0 0.0 0.0 0.0 
674.213346372 708.392 -1309.11200565 -179.034823559 -47.6205424518 -169.858862021 -2.824 -0.489656 -2.83534 -2.81958 -0.308319 -2.86073 -2.79832 0.439403 -2.84356 -2.8096 -0.0150053 -2.87724 -0.257721 1.62986 -4.17854 -0.164497 6.31459 -4.30974 -0.0 0.0 -0.0 10.1195 11.1301 18.9501 -14.4255 -46.4412 42.4681 2.18471 -47.2556 0.955833 -44.9722 -3.4948 4.39447 -3.64386 17.6438 -15.1386 -0.0 0.0 -0.0 5.62125 -3.35929 -10.932 -15.3367 18.2054 -54.581 0.99576 26.2552 -0.232232 56.3192 1.45741 6.75819 0.942058 1.57346 -5.65958 0.0 0.0 0.0 2.2931 -19.4931 -4.60575 -18.6609 0.30917 2.83435 36.7754 26.1202 -4.88208 28.7793 -0.0 -0.0 -0.0 0.0 -0.0 25.2228 -35.7735 0.0353184 -3.77304 -0.136856 -0.562769 9.26595 -14.2357 1.32839 -1.86711 0.0 0.0 0.0 0.0 0.0 
